<?xml version="1.0" encoding="UTF-8" standalone="no"?>
<svg width="502px" height="486px" viewBox="0 0 502 486" version="1.1" xmlns="http://www.w3.org/2000/svg" xmlns:xlink="http://www.w3.org/1999/xlink">
    <!-- Generator: Sketch 3.8.3 (29802) - http://www.bohemiancoding.com/sketch -->
    <title>Slice 1</title>
    <desc>Created with Sketch.</desc>
    <defs></defs>
    <g id="Page-1" stroke="none" stroke-width="1" fill="none" fill-rule="evenodd">
        <g id="leftbrained--just-the-logo">
            <g id="Layer_1">
                <path d="M182.818,51.437 L231.189,51.437 C239.285,51.437 245.909,58.061 245.909,66.157 L245.909,66.157 C245.909,74.254 239.285,80.877 231.189,80.877 L182.818,80.877 C174.722,80.877 168.098,74.253 168.098,66.157 L168.098,66.157 C168.099,58.061 174.723,51.437 182.818,51.437 L182.818,51.437 Z" id="Shape" fill="#94BB3D"></path>
                <path d="M97.276,434.564 L231.189,434.564 C239.285,434.564 245.909,427.94 245.909,419.844 L245.909,419.844 C245.909,411.747 239.285,405.124 231.189,405.124 L97.276,405.124 C89.18,405.124 82.556,411.747 82.556,419.844 L82.556,419.844 C82.557,427.94 89.18,434.564 97.276,434.564 L97.276,434.564 Z" id="Shape" fill="#11A2B8"></path>
                <path d="M197.303,101.964 L231.189,101.964 C239.285,101.964 245.909,108.588 245.909,116.684 L245.909,116.684 C245.909,124.78 239.285,131.404 231.189,131.404 L197.303,131.404 C189.207,131.404 182.583,124.78 182.583,116.684 L182.583,116.684 C182.583,108.587 189.207,101.964 197.303,101.964 L197.303,101.964 Z" id="Shape" fill="#F05444"></path>
                <path d="M106.503,384.038 L231.189,384.038 C239.285,384.038 245.909,377.414 245.909,369.317 L245.909,369.317 C245.909,361.221 239.285,354.597 231.189,354.597 L106.503,354.597 C98.407,354.597 91.784,361.221 91.784,369.317 L91.784,369.317 C91.784,377.414 98.407,384.038 106.503,384.038 L106.503,384.038 Z" id="Shape" fill="#F05444"></path>
                <path d="M113.871,101.964 L157.676,101.964 C165.772,101.964 172.396,108.588 172.396,116.684 L172.396,116.684 C172.396,124.78 165.772,131.404 157.676,131.404 L113.871,131.404 C105.775,131.404 99.151,124.78 99.151,116.684 L99.151,116.684 C99.151,108.587 105.775,101.964 113.871,101.964 L113.871,101.964 Z" id="Shape" fill="#11A2B8"></path>
                <path d="M40.623,384.038 L66.879,384.038 C74.975,384.038 81.598,377.414 81.598,369.317 L81.598,369.317 C81.598,361.221 74.974,354.597 66.879,354.597 L40.623,354.597 C32.527,354.597 25.903,361.221 25.903,369.317 L25.903,369.317 C25.903,377.414 32.527,384.038 40.623,384.038 L40.623,384.038 Z" id="Shape" fill="#94BB3D"></path>
                <path d="M189.655,203.018 L231.189,203.018 C239.285,203.018 245.909,209.642 245.909,217.738 L245.909,217.738 C245.909,225.834 239.285,232.458 231.189,232.458 L189.655,232.458 C181.559,232.458 174.935,225.834 174.935,217.738 L174.935,217.738 C174.936,209.641 181.56,203.018 189.655,203.018 L189.655,203.018 Z" id="Shape" fill="#11A2B8"></path>
                <path d="M149.323,152.491 L231.189,152.491 C239.285,152.491 245.909,159.115 245.909,167.211 L245.909,167.211 C245.909,175.308 239.285,181.931 231.189,181.931 L149.323,181.931 C141.227,181.931 134.603,175.307 134.603,167.211 L134.603,167.211 C134.604,159.115 141.228,152.491 149.323,152.491 L149.323,152.491 Z" id="Shape" fill="#FACA33"></path>
                <path d="M231.189,333.511 L166.184,333.511 C158.088,333.511 151.464,326.888 151.464,318.791 L151.464,318.791 C151.464,310.695 158.088,304.071 166.184,304.071 L231.189,304.071 C239.285,304.071 245.909,310.695 245.909,318.791 L245.909,318.791 C245.909,326.888 239.285,333.511 231.189,333.511 L231.189,333.511 Z" id="Shape" fill="#FACA33"></path>
                <path d="M126.559,333.511 L15.161,333.511 C7.065,333.511 0.441,326.888 0.441,318.791 L0.441,318.791 C0.441,310.695 7.065,304.071 15.161,304.071 L126.559,304.071 C134.655,304.071 141.279,310.695 141.279,318.791 L141.279,318.791 C141.279,326.888 134.655,333.511 126.559,333.511 L126.559,333.511 Z" id="Shape" fill="#11A2B8"></path>
                <path d="M88.391,152.491 L109.696,152.491 C117.792,152.491 124.416,159.115 124.416,167.211 L124.416,167.211 C124.416,175.308 117.792,181.931 109.696,181.931 L88.391,181.931 C80.295,181.931 73.671,175.307 73.671,167.211 L73.671,167.211 C73.671,159.115 80.295,152.491 88.391,152.491 L88.391,152.491 Z" id="Shape" fill="#94BB3D"></path>
                <path d="M36.076,253.544 L83.07,253.544 C91.167,253.544 97.79,260.169 97.79,268.264 L97.79,268.266 C97.79,276.361 91.165,282.985 83.07,282.985 L36.076,282.985 C27.981,282.985 21.356,276.362 21.356,268.266 L21.356,268.264 C21.356,260.167 27.98,253.544 36.076,253.544 L36.076,253.544 Z" id="Shape" fill="#FACA33"></path>
                <path d="M64.944,203.018 L149.185,203.018 C157.747,203.018 164.751,209.641 164.751,217.736 L164.751,217.739 C164.751,225.834 157.747,232.457 149.185,232.457 L64.944,232.457 C56.381,232.457 49.378,225.833 49.378,217.739 L49.378,217.736 C49.378,209.641 56.382,203.018 64.944,203.018 L64.944,203.018 Z" id="Shape" fill="#F05444"></path>
                <path d="M122.699,253.544 L231.19,253.544 C239.286,253.544 245.91,260.168 245.91,268.265 L245.91,268.265 C245.91,276.361 239.286,282.985 231.19,282.985 L122.699,282.985 C114.603,282.985 107.979,276.361 107.979,268.265 L107.979,268.265 C107.979,260.168 114.604,253.544 122.699,253.544 L122.699,253.544 Z" id="Shape" fill="#94BB3D"></path>
                <path d="M143.191,80.876 C151.298,80.876 157.911,74.264 157.911,66.156 C157.911,58.049 151.298,51.436 143.191,51.436 C135.084,51.436 128.471,58.049 128.471,66.156 C128.471,74.264 135.084,80.876 143.191,80.876 L143.191,80.876 Z" id="Shape" fill="#FACA33"></path>
                <path d="M191.563,0.912 L174.235,0.912 C166.143,0.912 159.516,7.532 159.516,15.631 L159.516,15.631 C159.516,23.726 166.14,30.35 174.235,30.35 L191.563,30.35 C199.662,30.35 206.285,23.726 206.285,15.631 L206.285,15.631 C206.285,7.532 199.655,0.912 191.563,0.912 L191.563,0.912 Z" id="Shape" fill="#F05444"></path>
                <circle id="Oval" fill="#F05444" cx="135.708" cy="470.372" r="14.72"></circle>
                <path d="M175.333,485.092 L231.188,485.092 C239.284,485.092 245.908,478.468 245.908,470.371 L245.908,470.371 C245.908,462.275 239.284,455.651 231.188,455.651 L175.333,455.651 C167.237,455.651 160.613,462.275 160.613,470.371 L160.613,470.371 C160.613,478.468 167.237,485.092 175.333,485.092 L175.333,485.092 Z" id="Shape" fill="#FACA33"></path>
                <circle id="Oval" fill="#11A2B8" cx="231.189" cy="15.63" r="14.72"></circle>
                <path d="M302.771,51.436 L270.812,51.436 C262.709,51.436 256.088,58.059 256.088,66.155 L256.088,66.155 C256.088,74.253 262.709,80.873 270.812,80.873 L302.499,80.873 L333.541,80.873 C339.366,80.873 344.087,85.594 344.087,91.42 C344.087,97.138 339.532,101.796 333.852,101.961 L270.813,101.961 C262.713,101.961 256.093,108.583 256.093,116.681 L256.093,116.681 C256.093,124.781 262.713,131.4 270.813,131.4 L333.542,131.4 L362.867,131.4 C368.692,131.4 373.412,136.121 373.412,141.946 C373.412,147.678 368.839,152.343 363.139,152.488 L270.814,152.488 C262.714,152.488 256.094,159.108 256.094,167.208 L256.094,167.208 C256.094,175.306 262.714,181.927 270.814,181.927 L350.776,181.927 L362.868,181.927 L388.347,181.927 L394.873,181.927 C400.697,181.927 405.418,186.646 405.418,192.473 C405.418,198.204 400.845,202.87 395.145,203.015 L374.707,203.015 L270.808,203.015 C262.709,203.015 256.088,209.635 256.088,217.735 L256.088,217.735 C256.088,225.833 262.709,232.453 270.808,232.453 L374.705,232.453 L394.871,232.453 L406.362,232.453 L418.801,232.453 C424.626,232.453 429.347,237.174 429.347,243 C429.347,248.731 424.773,253.397 419.073,253.542 L270.81,253.542 C262.714,253.542 256.091,260.165 256.091,268.262 L256.091,268.264 C256.091,276.36 262.714,282.983 270.81,282.983 L453.485,282.983 L453.764,282.98 L461.576,282.98 C467.402,282.98 472.122,287.701 472.122,293.526 C472.122,299.26 467.548,303.926 461.845,304.07 L461.845,304.069 L436.11,304.069 L270.812,304.069 C262.72,304.069 256.092,310.693 256.092,318.789 L256.092,318.789 C256.092,326.888 262.715,333.511 270.812,333.511 L436.38,333.511 C442.082,333.657 446.654,338.319 446.654,344.054 C446.654,349.876 441.935,354.6 436.108,354.6 L379.686,354.6 L379.457,354.597 L379.457,354.6 L270.812,354.6 C262.709,354.6 256.092,361.221 256.092,369.32 L256.092,369.32 C256.092,377.415 262.709,384.039 270.812,384.039 L379.73,384.039 C385.432,384.185 390.003,388.847 390.003,394.582 C390.003,400.313 385.432,404.979 379.73,405.125 L341.026,405.125 L270.808,405.125 C262.709,405.125 256.088,411.748 256.088,419.843 L256.088,419.843 C256.088,427.943 262.709,434.563 270.808,434.563 L341.026,434.563 C346.852,434.563 351.572,439.284 351.572,445.109 C351.572,450.829 347.017,455.487 341.337,455.651 L270.813,455.651 C262.716,455.651 256.093,462.276 256.093,470.371 L256.093,470.371 C256.093,478.467 262.721,485.091 270.813,485.091 L341.027,485.091 C363.11,485.091 381.01,467.191 381.01,445.107 C381.01,441.458 380.521,437.922 379.605,434.563 C401.622,434.483 419.444,416.615 419.444,394.58 C419.444,390.932 418.953,387.4 418.038,384.041 L436.11,384.041 L436.11,384.039 C458.195,384.039 476.094,366.137 476.094,344.054 C476.094,339.673 475.388,335.458 474.086,331.513 C490.042,326.263 501.561,311.242 501.561,293.527 C501.561,271.447 483.661,253.547 461.577,253.547 L457.383,253.547 C458.298,250.187 458.788,246.651 458.788,243 C458.788,225.801 447.927,211.14 432.687,205.497 C434.093,201.415 434.857,197.035 434.857,192.475 C434.857,172.581 420.325,156.085 401.299,153.01 C402.309,149.497 402.851,145.785 402.851,141.947 C402.851,122.947 389.595,107.044 371.829,102.974 C372.932,99.314 373.525,95.437 373.525,91.419 C373.525,71.849 359.461,55.565 340.886,52.115 C341.924,48.555 342.485,44.79 342.485,40.893 C342.485,18.811 324.585,0.912 302.5,0.912 L302.5,0.915 L270.813,0.915 C262.713,0.915 256.093,7.54 256.093,15.634 L256.093,15.634 C256.093,23.734 262.713,30.354 270.813,30.354 L302.5,30.354 L302.5,30.351 C308.327,30.351 313.046,35.07 313.046,40.896 C313.044,46.625 308.472,51.291 302.771,51.436 L302.771,51.436 Z" id="Shape" fill="#444951"></path>
            </g>
        </g>
    </g>
</svg>